<?xml version="1.0" encoding="utf-8"?>
<!-- Generator: Adobe Illustrator 16.0.0, SVG Export Plug-In . SVG Version: 6.00 Build 0)  -->
<!DOCTYPE svg PUBLIC "-//W3C//DTD SVG 1.1//EN" "http://www.w3.org/Graphics/SVG/1.1/DTD/svg11.dtd">
<svg version="1.1" id="Layer_1" xmlns="http://www.w3.org/2000/svg" xmlns:xlink="http://www.w3.org/1999/xlink" x="0px" y="0px"
	 width="98.582px" height="34.11px" viewBox="0 0 98.582 34.11" enable-background="new 0 0 98.582 34.11" xml:space="preserve">
<g>
	<defs>
		<rect id="SVGID_1_" y="0" width="98.582" height="34.111"/>
	</defs>
	<clipPath id="SVGID_2_">
		<use xlink:href="#SVGID_1_"  overflow="visible"/>
	</clipPath>
	<path clip-path="url(#SVGID_2_)" fill-rule="evenodd" clip-rule="evenodd" fill="#BDA881" d="M84.188,18.688
		c-3.005-0.024-6.634-0.62-10.255-1.157c-4.53-0.672-9.034-1.531-13.432-2.85c-0.654-0.197-1.351-0.253-2.021-0.399
		c-1.867-0.403-3.632-0.192-5.322,0.742c-0.899,0.498-1.86,0.886-2.774,1.363c-0.558,0.291-1.483,0.332-1.44,1.142
		c0.031,0.555,0.78,0.782,1.313,0.985c2.674,1.02,5.353,2.026,8.032,3.027c0.666,0.25,1.357,0.271,2.018,0.002
		c2.168-0.886,4.458-0.955,6.749-1.113c2.162-0.15,4.084,0.518,5.878,1.576c1.135,0.668,1.771,1.789,1.95,3.1
		c0.119,0.877-0.493,2.061-1.627,2.313c-1.506,0.331-2.972,0.104-4.433-0.18c-2.926-0.566-5.842-1.227-8.627-2.275
		c-1.637-0.616-3.11-0.518-4.653,0.123c-1.479,0.614-2.983,1.172-4.462,1.788c-0.145,0.061-0.278,0.364-0.264,0.542
		c0.019,0.182,0.196,0.456,0.356,0.5c1.873,0.521,3.756,1.018,5.64,1.498c1.219,0.31,2.491,0.469,3.666,0.895
		c2.737,0.99,5.534,1.449,8.434,1.326c0.339-0.015,0.685,0.053,1.021,0.105c0.457,0.07,0.979,0.861,0.889,1.324
		c-0.069,0.354-0.59,0.87-0.926,0.916c-0.224,0.031-0.451,0.071-0.679,0.085c-2.312,0.137-4.631-0.026-6.799-0.767
		c-3.812-1.302-7.785-1.881-11.649-2.929c-1.214-0.329-2.457-0.596-3.619-1.058c-0.947-0.377-1.738-0.274-2.627,0.119
		c-2.302,1.021-4.67,1.882-7.062,2.674c-1.084,0.358-2.106,0.898-3.178,1.294c-1.578,0.582-3.518,0.022-4.662-1.337
		c-0.383-0.454-0.553-1.02-0.25-1.598c0.266-0.504,0.488-1.086,0.892-1.453c2.428-2.2,5.079-3.939,8.565-3.721
		c1.945,0.122,3.898,0.219,5.769,0.828c0.934,0.305,1.79,0.189,2.67-0.167c2.016-0.815,4.047-1.591,6.061-2.409
		c0.185-0.076,0.375-0.314,0.416-0.509c0.031-0.153-0.146-0.364-0.262-0.528c-0.06-0.087-0.179-0.145-0.285-0.188
		c-2.323-0.967-4.648-1.936-6.979-2.888c-0.762-0.312-1.522-0.38-2.332-0.05c-4.057,1.654-8.307,2.567-12.629,3.156
		c-2.043,0.279-4.1,0.445-6.153,0.649c-1.172,0.116-2.269-0.049-3.25-0.798c-0.449-0.343-1.011-0.535-1.476-0.861
		c-0.268-0.189-0.504-0.479-0.655-0.773c-0.673-1.318-0.388-3.5,0.534-4.526c1.101-1.226,2.429-2.144,4.017-2.527
		c2.114-0.508,4.217-0.818,6.449-0.367c3.596,0.725,7.206,1.338,10.67,2.59c0.641,0.232,1.323,0.383,1.996,0.482
		c0.444,0.067,0.942,0.077,1.358-0.063c1.949-0.659,3.932-1.268,5.514-2.688c0.263-0.237,0.238-0.698-0.08-0.818
		c-0.963-0.362-1.917-0.769-2.903-1.054C40.898,9.939,34.538,8.023,28.077,6.45c-4.127-1.004-8.266-1.876-12.471-2.443
		C14.813,3.9,14.013,3.8,13.213,3.769c-3.037-0.118-5.619,0.985-7.75,3.097c-1.086,1.078-1.596,2.493-1.865,3.99
		c-0.487,2.695,0.419,4.392,2.98,5.44c1.068,0.436,2.172,0.748,3.336,0.262c0.309-0.129,0.678-0.234,0.994-0.185
		c0.301,0.047,0.631,0.255,0.834,0.491c0.273,0.314,0.061,1.006-0.289,1.202c-1.459,0.816-2.965,1.078-4.621,0.613
		c-1.236-0.347-2.281-1.064-3.443-1.544c-0.204-0.084-0.403-0.235-0.541-0.406c-0.721-0.89-1.459-1.771-2.118-2.706
		c-0.691-0.982-0.886-2.102-0.609-3.281c0.158-0.667,0.363-1.323,0.531-1.989c0.463-1.847,1.446-3.359,2.957-4.507
		c1.834-1.392,3.852-2.473,5.973-3.365c0.314-0.132,0.646-0.256,0.98-0.303c2.84-0.395,5.678-0.809,8.555-0.425
		c1.25,0.166,2.502,0.319,3.754,0.456c3.207,0.349,6.307,1.145,9.324,2.256c3.229,1.189,6.51,2.187,9.826,3.103
		c2.756,0.762,5.489,1.646,8.162,2.656c2.153,0.813,4.37,1.368,6.563,2.018c0.813,0.24,1.572,0.152,2.302-0.313
		c0.772-0.49,1.554-0.978,2.373-1.388c1.123-0.565,2.258-1.127,3.435-1.557c1.506-0.549,3.026-1.013,4.446-1.802
		c0.882-0.491,1.925-0.724,2.922-0.979c3.216-0.825,6.408-1.857,9.677-2.334c3.262-0.478,6.59-0.844,9.92-0.369
		c1.776,0.251,3.265,1.119,4.549,2.263c1.318,1.175,2.025,2.723,2.175,4.536c0.226,2.779-0.552,5.22-2.296,7.355
		c-0.821,1.006-1.982,1.539-3.207,1.859C90.361,18.614,87.626,18.828,84.188,18.688 M85.309,5.81
		c-3.091,0.189-6.146,0.55-9.13,1.409c-1.099,0.315-2.207,0.602-3.329,0.806c-3.396,0.618-6.537,2.026-9.787,3.097
		c-0.105,0.035-0.207,0.104-0.293,0.176c-0.252,0.217-0.494,0.443-0.74,0.665c0.265,0.204,0.504,0.536,0.795,0.59
		c1.914,0.35,3.787,0.852,5.638,1.45c0.321,0.104,0.668,0.147,1.006,0.201c3.606,0.588,7.209,1.211,10.826,1.739
		c1.349,0.195,2.731,0.203,4.101,0.216c0.674,0.006,1.389-0.061,2.018-0.285c1.396-0.496,2.765-1.085,4.117-1.691
		c0.965-0.43,1.676-1.172,2.213-2.082c1.234-2.09,0.648-5.578-2.651-6.08c-0.677-0.104-1.36-0.177-2.041-0.203
		C87.138,5.784,86.222,5.81,85.309,5.81 M28.561,20.519c2.614,0.036,5.266-0.676,7.957-1.107c0.668-0.107,1.317-0.355,1.961-0.577
		c0.319-0.109,0.614-0.298,0.907-0.468c0.093-0.053,0.234-0.189,0.216-0.244c-0.058-0.181-0.136-0.422-0.283-0.503
		c-1.533-0.851-3.252-0.962-4.941-1.161c-1.129-0.133-2.303-0.035-3.393-0.301c-1.166-0.285-2.228-0.154-3.334,0.142
		c-0.658,0.177-1.347,0.227-2.008,0.392c-0.322,0.079-0.625,0.267-0.914,0.442c-0.531,0.321-0.752,0.841-0.785,1.431
		c-0.035,0.635,0.334,1.053,0.844,1.365C25.917,20.62,27.152,20.671,28.561,20.519 M39.347,27.698
		c-2.391-0.176-4.528,0.384-6.375,1.91c-0.36,0.295-0.649,0.654-0.633,1.137c0.006,0.18,0.16,0.422,0.318,0.514
		c0.176,0.101,0.449,0.129,0.65,0.076c2.53-0.66,4.946-1.633,7.327-2.697c0.14-0.063,0.199-0.354,0.246-0.549
		c0.013-0.059-0.137-0.214-0.227-0.229C40.211,27.787,39.766,27.747,39.347,27.698 M70.619,25.258c0.355-0.05,0.582-0.069,0.8-0.118
		c0.106-0.024,0.278-0.098,0.284-0.162c0.021-0.212,0.054-0.477-0.051-0.635c-0.179-0.275-0.418-0.557-0.699-0.712
		c-2.016-1.107-4.096-1.169-6.211-0.299c-0.08,0.033-0.187,0.181-0.168,0.237c0.029,0.094,0.142,0.189,0.238,0.23
		C66.72,24.587,68.729,24.94,70.619,25.258"/>
</g>
</svg>
